<?xml version="1.0" encoding="UTF-8"?>
<svg xmlns="http://www.w3.org/2000/svg" width="1180" height="268" viewBox="0 0 1180 268" role="img" aria-label="VADViT pipeline from Windows memory dump to attention-ranked VAD regions">
<rect x="0" y="0" width="1180" height="268" fill="#7d8289"/>
<text x="590.0" y="26" text-anchor="middle" font-family="ui-sans-serif, Helvetica, Arial, sans-serif" font-size="15" font-weight="700" fill="#f3efe6">VADViT pipeline</text>
<rect x="12.0" y="52" width="116.0" height="132" rx="8" ry="8" fill="#4f6574" stroke="#2f3a42" stroke-width="1.2"/>
<text x="70.0" y="114.0" text-anchor="middle" font-family="ui-sans-serif, Helvetica, Arial, sans-serif" font-size="11" fill="#f3efe6">Windows memory</text>
<text x="70.0" y="129.0" text-anchor="middle" font-family="ui-sans-serif, Helvetica, Arial, sans-serif" font-size="11" fill="#f3efe6">dump</text>
<line x1="128.0" y1="118.0" x2="135.0" y2="118.0" stroke="#5a6570" stroke-width="2"/>
<polygon points="141.0,118.0 134.0,113.0 134.0,123.0" fill="#5a6570"/>
<rect x="142.0" y="52" width="116.0" height="132" rx="8" ry="8" fill="#4f6d62" stroke="#2f3a42" stroke-width="1.2"/>
<text x="200.0" y="106.5" text-anchor="middle" font-family="ui-sans-serif, Helvetica, Arial, sans-serif" font-size="11" fill="#f3efe6">Volatility 3</text>
<text x="200.0" y="121.5" text-anchor="middle" font-family="ui-sans-serif, Helvetica, Arial, sans-serif" font-size="11" fill="#f3efe6">windows.vadinfo</text>
<text x="200.0" y="136.5" text-anchor="middle" font-family="ui-sans-serif, Helvetica, Arial, sans-serif" font-size="11" fill="#f3efe6">PID-targeted</text>
<line x1="258.0" y1="118.0" x2="265.0" y2="118.0" stroke="#5a6570" stroke-width="2"/>
<polygon points="271.0,118.0 264.0,113.0 264.0,123.0" fill="#5a6570"/>
<rect x="272.0" y="52" width="116.0" height="132" rx="8" ry="8" fill="#5c5d74" stroke="#2f3a42" stroke-width="1.2"/>
<text x="330.0" y="106.5" text-anchor="middle" font-family="ui-sans-serif, Helvetica, Arial, sans-serif" font-size="11" fill="#f3efe6">VAD region files</text>
<text x="330.0" y="121.5" text-anchor="middle" font-family="ui-sans-serif, Helvetica, Arial, sans-serif" font-size="11" fill="#f3efe6">sorted by</text>
<text x="330.0" y="136.5" text-anchor="middle" font-family="ui-sans-serif, Helvetica, Arial, sans-serif" font-size="11" fill="#f3efe6">address</text>
<line x1="388.0" y1="118.0" x2="395.0" y2="118.0" stroke="#5a6570" stroke-width="2"/>
<polygon points="401.0,118.0 394.0,113.0 394.0,123.0" fill="#5a6570"/>
<rect x="402.0" y="52" width="116.0" height="132" rx="8" ry="8" fill="#6a5a4a" stroke="#2f3a42" stroke-width="1.2"/>
<text x="460.0" y="106.5" text-anchor="middle" font-family="ui-sans-serif, Helvetica, Arial, sans-serif" font-size="11" fill="#f3efe6">Three channels</text>
<text x="460.0" y="121.5" text-anchor="middle" font-family="ui-sans-serif, Helvetica, Arial, sans-serif" font-size="11" fill="#f3efe6">intensity · entropy</text>
<text x="460.0" y="136.5" text-anchor="middle" font-family="ui-sans-serif, Helvetica, Arial, sans-serif" font-size="11" fill="#f3efe6">· Markov</text>
<line x1="518.0" y1="118.0" x2="525.0" y2="118.0" stroke="#5a6570" stroke-width="2"/>
<polygon points="531.0,118.0 524.0,113.0 524.0,123.0" fill="#5a6570"/>
<rect x="532.0" y="52" width="116.0" height="132" rx="8" ry="8" fill="#5a4f6a" stroke="#2f3a42" stroke-width="1.2"/>
<text x="590.0" y="114.0" text-anchor="middle" font-family="ui-sans-serif, Helvetica, Arial, sans-serif" font-size="11" fill="#f3efe6">Fused RGB</text>
<text x="590.0" y="129.0" text-anchor="middle" font-family="ui-sans-serif, Helvetica, Arial, sans-serif" font-size="11" fill="#f3efe6">patches</text>
<line x1="648.0" y1="118.0" x2="655.0" y2="118.0" stroke="#5a6570" stroke-width="2"/>
<polygon points="661.0,118.0 654.0,113.0 654.0,123.0" fill="#5a6570"/>
<rect x="662.0" y="52" width="116.0" height="132" rx="8" ry="8" fill="#4a5f6c" stroke="#2f3a42" stroke-width="1.2"/>
<text x="720.0" y="114.0" text-anchor="middle" font-family="ui-sans-serif, Helvetica, Arial, sans-serif" font-size="11" fill="#f3efe6">Process-level</text>
<text x="720.0" y="129.0" text-anchor="middle" font-family="ui-sans-serif, Helvetica, Arial, sans-serif" font-size="11" fill="#f3efe6">grid image</text>
<line x1="778.0" y1="118.0" x2="785.0" y2="118.0" stroke="#5a6570" stroke-width="2"/>
<polygon points="791.0,118.0 784.0,113.0 784.0,123.0" fill="#5a6570"/>
<rect x="792.0" y="52" width="116.0" height="132" rx="8" ry="8" fill="#4d5f52" stroke="#2f3a42" stroke-width="1.2"/>
<text x="850.0" y="114.0" text-anchor="middle" font-family="ui-sans-serif, Helvetica, Arial, sans-serif" font-size="11" fill="#f3efe6">Fine-tuned ViT</text>
<text x="850.0" y="129.0" text-anchor="middle" font-family="ui-sans-serif, Helvetica, Arial, sans-serif" font-size="11" fill="#f3efe6">via timm</text>
<line x1="908.0" y1="118.0" x2="915.0" y2="118.0" stroke="#5a6570" stroke-width="2"/>
<polygon points="921.0,118.0 914.0,113.0 914.0,123.0" fill="#5a6570"/>
<rect x="922.0" y="52" width="116.0" height="132" rx="8" ry="8" fill="#6a5348" stroke="#2f3a42" stroke-width="1.2"/>
<text x="980.0" y="114.0" text-anchor="middle" font-family="ui-sans-serif, Helvetica, Arial, sans-serif" font-size="11" fill="#f3efe6">Binary + family</text>
<text x="980.0" y="129.0" text-anchor="middle" font-family="ui-sans-serif, Helvetica, Arial, sans-serif" font-size="11" fill="#f3efe6">heads</text>
<line x1="1038.0" y1="118.0" x2="1045.0" y2="118.0" stroke="#5a6570" stroke-width="2"/>
<polygon points="1051.0,118.0 1044.0,113.0 1044.0,123.0" fill="#5a6570"/>
<rect x="1052.0" y="52" width="116.0" height="132" rx="8" ry="8" fill="#5a4e62" stroke="#2f3a42" stroke-width="1.2"/>
<text x="1110.0" y="114.0" text-anchor="middle" font-family="ui-sans-serif, Helvetica, Arial, sans-serif" font-size="11" fill="#f3efe6">Attention-ranked</text>
<text x="1110.0" y="129.0" text-anchor="middle" font-family="ui-sans-serif, Helvetica, Arial, sans-serif" font-size="11" fill="#f3efe6">regions</text>
<text x="590.0" y="206.0" text-anchor="middle" font-family="ui-sans-serif, Helvetica, Arial, sans-serif" font-size="11" fill="#e4ddd0">R: VAD-feature intensity · G: windowed Shannon entropy · B: Markov byte-transition</text>
</svg>
